<svg class="icon" viewBox="0 0 1024 1024" version="1.1" xmlns="http://www.w3.org/2000/svg" width="32" height="32">
    <path d="M109.526509 210.163557l804.946982 0c18.021445 0 32.633235-14.611789 32.633235-32.633235s-14.611789-32.633235-32.633235-32.633235L109.526509 144.897088c-18.026562 0-32.633235 14.611789-32.633235 32.633235S91.499947 210.163557 109.526509 210.163557z" fill="#1296db">
    </path>
    <path d="M914.473491 797.557688 109.526509 797.557688c-18.026562 0-32.633235 14.611789-32.633235 32.633235 0 18.021445 14.606673 32.633235 32.633235 32.633235l804.946982 0c18.021445 0 32.633235-14.611789 32.633235-32.633235C947.106726 812.168454 932.494936 797.557688 914.473491 797.557688z" fill="#1296db">
    </path>
    <path d="M914.473491 471.227388 109.526509 471.227388c-18.026562 0-32.633235 14.611789-32.633235 32.633235s14.606673 32.633235 32.633235 32.633235l804.946982 0c18.021445 0 32.633235-14.611789 32.633235-32.633235S932.494936 471.227388 914.473491 471.227388z" fill="#1296db">
    </path>
</svg>