<svg class="icon" viewBox="0 0 1024 1024" version="1.1" xmlns="http://www.w3.org/2000/svg" width="64" height="64">
    <path d="M549.096 965.52a15.888 15.888 0 0 1-12.768-14.792l-19.272-385.72-369.192-110.192a15.888 15.888 0 0 1-11.328-15.952 16.224 16.224 0 0 1 12.568-15.168l738.704-170.632c5.816-1.392 11.136 1.304 14.92 5.528 0.2 0.152 0.472 0.072 0.664 0.248 0.336 0.24 0.344 0.76 0.64 1.072 0.504 0.704 1.432 0.992 1.8 1.816 0.224 0.408-0.024 0.92 0.152 1.344 2.928 4.664 4.16 10.208 1.544 15.384l-340.72 678.416a16.208 16.208 0 0 1-17.712 8.648zM215.544 441.328l312.432 93.208 297.064-234.048-609.496 140.84z" fill="#bfbfbf">
    </path>
</svg>