<svg  class="icon" viewBox="0 0 1024 1024" version="1.1" xmlns="http://www.w3.org/2000/svg"  width="64" height="64">
    <path d="M810.384 512.736a716.928 716.928 0 0 0 70.16-88c59.824-88 74.592-162.048 41.36-208s-107.824-54.752-209.76-25.152c-13.296 3.696-26.592 8.144-40.624 13.312C639.024 90.208 585.84 8.816 514.208 8.816c-67.2 0-118.176 71.776-151.408 176.112a204.448 204.448 0 0 0-5.904 19.984l-19.936-6.656-19.936-6.656c-102.672-29.6-177.264-19.984-209.76 25.152-33.232 45.872-18.464 119.872 41.36 208a794.976 794.976 0 0 0 70.16 88c-102.672 111.728-161.744 227.2-111.52 296 20.688 28.8 57.6 42.912 105.6 42.912a445.648 445.648 0 0 0 144.768-29.6c32.496 113.952 85.68 195.344 156.576 195.344 67.2 0 117.44-71.776 150.672-175.36a204.496 204.496 0 0 0 5.904-19.984l19.936 6.656a423.152 423.152 0 0 0 124.8 22.944c48 0 84.944-14.064 105.6-42.912 50.272-69.584-8.08-184.272-110.736-296.016z m-86.4-279.696a342.896 342.896 0 0 1 93.808-15.536c33.232 0 57.6 8.144 69.424 24.416 20.688 28.8 5.168 88-42.096 158.4a682.208 682.208 0 0 1-64.256 80.656 1059.2 1059.2 0 0 0-50.96-48.096c-7.392-6.656-14.768-13.312-22.16-19.2-0.736-9.6-1.472-19.984-2.224-29.6a1002.656 1002.656 0 0 0-22.16-138.368c13.28-4.528 26.576-8.96 40.608-12.672zM646.432 741.376c-1.472 7.392-2.96 14.064-4.432 20.72-6.656-2.96-13.296-5.184-19.936-8.88a1310.64 1310.64 0 0 1-64.992-32.56c23.632-15.536 48-31.824 72.384-48.832 10.336-7.392 20.688-15.536 31.024-22.944-3.728 32.56-8.16 64.384-14.064 92.496z m-42.096-104.336c-30.288 22.192-60.56 41.44-90.112 59.2a1447.968 1447.968 0 0 1-90.112-59.2 1239.2 1239.2 0 0 1-39.136-29.6l-22.16-17.76c-0.736-9.6-1.472-18.496-1.472-28.112-0.736-16.272-0.736-31.824-0.736-48.832 0-26.64 0.736-52.528 2.224-76.96 19.2-15.536 39.152-31.824 60.56-47.36a1107.072 1107.072 0 0 1 90.112-59.2c30.288 17.76 59.824 37.744 90.112 59.2 13.296 9.6 26.592 19.2 39.152 29.6l22.16 17.76c0.736 9.6 1.472 18.496 1.472 28.112 0.736 16.272 0.736 31.824 0.736 48.832 0 26.64-0.736 52.528-2.224 76.96a1015.328 1015.328 0 0 1-60.592 47.376z m-231.92 40.704c-1.472-9.6-2.208-19.2-3.696-28.8 7.392 5.92 15.504 11.84 23.632 17.76a51.664 51.664 0 0 1 7.392 5.92q36.56 26.64 73.12 48.832a989.232 989.232 0 0 1-84.928 41.44 698.576 698.576 0 0 1-15.536-85.152z m-53.92-155.392c0 9.6 0 19.2 0.736 29.6-7.392-6.656-14.032-13.312-21.424-19.984-6.656-5.92-12.56-12.576-19.2-18.496 12.56-12.576 26.592-25.904 40.624-39.216-0.736 13.312-0.736 25.904-0.736 39.216zM382.752 283.36c1.472-7.392 2.96-14.064 4.432-20.72l19.936 8.88c21.424 9.6 42.832 20.72 64.992 33.296a1557.6 1557.6 0 0 0-72.384 48.832c-10.336 7.392-20.672 15.536-30.272 22.944a831.584 831.584 0 0 1 13.28-93.232z m274.016 64.368c1.472 9.6 2.208 19.2 3.696 28.8a658.72 658.72 0 0 0-23.632-17.76c-2.224-1.472-5.168-3.696-7.392-5.184-24.368-17.76-48.752-33.296-73.12-48.832 28.8-15.536 57.6-29.6 84.928-41.44a661.008 661.008 0 0 1 15.504 84.432z m53.92 155.392c0-9.6 0-19.2-0.736-29.6 7.392 6.656 14.768 13.312 21.424 19.984 6.656 5.92 12.56 12.576 19.2 18.496-13.296 13.312-26.592 25.904-40.624 39.216 0.736-13.312 0.736-25.904 0.736-39.216zM404.176 200.48c30.288-93.232 71.648-148.8 110.048-148.8 42.096 0 86.4 62.896 116.704 168.704a1010.128 1010.128 0 0 0-116.704 58.448c-32.496-18.496-64.992-35.52-96.752-49.6l-19.936-8.88q3.296-10.976 6.624-19.856zM184.08 401.008c-47.264-70.288-63.52-129.488-42.096-158.4s81.984-32.56 163.2-9.6c6.656 2.224 14.032 4.432 21.424 6.656l19.936 6.656c-1.472 6.656-2.96 14.064-4.432 20.72a1147.632 1147.632 0 0 0-19.936 146.512 1630.496 1630.496 0 0 0-73.856 67.328 742.96 742.96 0 0 1-64.256-79.872zM141.984 782.816c-28.8-40 10.336-133.184 107.088-238.992 16.256 16.272 33.232 31.824 50.96 48.096 7.392 6.656 14.768 13.312 22.16 19.2l2.224 28.8a1001.472 1001.472 0 0 0 22.16 138.368c-102.688 37.824-180.24 38.56-204.608 4.528z m483.04 42.912c-30.288 92.496-70.912 147.984-110.048 147.984-41.36 0-85.68-62.896-115.952-168a1143.504 1143.504 0 0 0 116.688-58.448 925.248 925.248 0 0 0 96.752 49.6l19.936 8.88a73.136 73.136 0 0 0-7.408 19.984z m262.192-42.912c-22.896 31.824-91.584 32.56-184.64 2.224l-19.936-6.656c1.472-6.656 2.96-14.064 4.432-20.72a1129.792 1129.792 0 0 0 19.936-146.512c26.592-22.192 50.96-45.136 73.856-67.328 95.984 105.808 135.136 199.776 106.336 238.992z" fill="#1296db" >
    </path>

    <path d="M514.208 1024c-67.2 0-124.8-68.8-161.744-193.104a436.176 436.176 0 0 1-140.32 27.376c-51.696 0-90.096-15.536-111.52-45.872C54.096 748.032 93.232 638.528 208.448 512a863.632 863.632 0 0 1-66.464-83.6c-61.296-91.008-76.064-168-41.36-216.784s112.256-58.448 217.872-28.112c4.432 1.472 9.6 2.96 14.768 4.432l9.6 2.96c2.96 0.736 5.904 2.224 8.864 2.96a114.368 114.368 0 0 0 3.696-12.576C393.088 62.88 447.744 0.016 513.472 0.016c67.2 0 124.8 68.8 161.744 193.856 11.824-4.432 22.896-7.392 33.232-10.352 105.6-30.4 183.168-19.984 217.872 28.112s20.688 125.04-41.36 216a863.472 863.472 0 0 1-66.464 83.6c115.2 126.528 154.352 235.28 107.824 300.4-21.424 29.6-59.824 45.872-111.52 45.872a444.992 444.992 0 0 1-127.024-22.944c-4.432-1.472-8.128-2.96-12.56-4.432a114.768 114.768 0 0 0-3.696 12.576C634.592 961.856 579.936 1024 514.208 1024z m-151.408-212.352l2.224 7.392c35.456 122.816 88.624 190.144 149.92 190.144 57.6 0 108.56-60.672 144-170.176a204.976 204.976 0 0 0 5.904-19.984l2.208-7.392 7.392 2.96 19.936 6.656a414.768 414.768 0 0 0 122.608 22.192c47.264 0 80.496-13.312 99.712-39.216 42.832-59.2 2.208-163.52-110.784-286.4l-4.432-5.184 4.432-5.184a809.376 809.376 0 0 0 69.424-86.56c57.6-85.824 72.384-156.112 41.36-199.776-31.024-42.912-102.656-51.056-202.368-22.944-11.808 3.696-25.104 7.392-39.888 13.312l-7.392 2.96-2.208-7.392C629.392 84.24 576.224 16.16 514.928 16.16c-57.6 0-108.576 60.672-144 170.912a204.432 204.432 0 0 0-5.904 19.984l-2.208 7.392-7.392-2.96a127.168 127.168 0 0 0-15.504-5.184l-9.6-2.96c-4.432-1.472-9.6-2.96-14.032-4.432-98.96-28.112-170.608-20.72-202.368 22.944-31.024 42.912-16.256 113.936 41.36 199.776a757.808 757.808 0 0 0 69.424 86.56l4.432 5.184-4.432 5.184c-112.992 122.816-153.6 227.2-110.784 286.4 19.2 25.888 52.432 39.216 99.712 39.216a425.968 425.968 0 0 0 142.544-29.6z m151.408 169.44c-45.792 0-92.32-65.104-123.344-173.136l-1.472-6.656 5.904-2.224a994.272 994.272 0 0 0 115.2-58.448l3.696-2.224 3.696 2.224a996.016 996.016 0 0 0 96 49.6c6.64 2.96 13.296 5.92 19.2 8.88l5.904 2.224-1.472 6.656a203.968 203.968 0 0 0-5.904 19.984c-30.992 96.832-73.824 153.12-117.408 153.12zM407.12 809.44c28.064 95.44 70.16 156.112 107.088 156.112 35.456 0 74.592-54.752 103.392-142.8l4.432-13.312c-4.432-2.224-8.864-3.696-14.032-5.92-29.536-13.312-60.56-29.6-93.792-48.096a1038.4 1038.4 0 0 1-107.088 54.016z m411.376 5.92a401.136 401.136 0 0 1-118.16-22.192l-19.936-6.656-5.904-2.224 1.472-6.656c1.472-6.656 2.96-13.312 4.432-20.72a1127.808 1127.808 0 0 0 19.2-145.76v-2.96l2.224-2.224c25.104-21.456 50.224-43.648 73.12-67.328l5.168-5.184 5.168 5.92c96.752 106.544 138.848 204.208 107.088 248.608-12.608 17.744-38.416 27.36-73.872 27.36z m-127.024-41.44l13.296 4.432c87.888 28.8 155.84 28.8 176.512 0 26.592-36.256-15.504-128-101.184-224.192-21.424 20.72-43.568 41.44-66.464 60.672a1115.488 1115.488 0 0 1-19.936 144.272c-0.752 5.2-1.488 9.632-2.224 14.816z m-480.8 40.688c-35.456 0-62.032-8.88-75.328-27.376-31.76-44.4 10.336-142.064 107.088-248.608l5.168-5.92 5.168 5.184a1008.256 1008.256 0 0 0 50.224 47.36l2.96 2.96c6.656 5.92 12.56 11.104 19.2 17.024l2.208 2.224v2.96l2.208 28.8a974.032 974.032 0 0 0 22.16 137.6l1.472 6.656-5.904 2.224a414.8 414.8 0 0 1-136.624 28.912z m38.4-260.432c-85.664 96.192-127.024 187.936-101.184 224.192 22.16 30.4 96 28.112 189.808-5.184a1034.56 1034.56 0 0 1-20.688-132.432c-0.736-8.88-1.472-17.76-2.224-25.888-5.904-5.184-11.808-10.352-16.992-14.8l-2.96-2.96a844.048 844.048 0 0 1-45.76-42.928z m398.08 218.272l-12.56-5.184-15.504-6.656c-19.2-8.88-39.888-19.2-64.992-33.296l-11.072-5.92 10.336-6.656c25.104-15.536 49.488-32.56 72.384-48.832 10.336-7.392 20.672-14.8 30.288-22.944l14.032-10.352-2.224 17.024a898.416 898.416 0 0 1-14.032 93.232 118.176 118.176 0 0 1-3.696 15.536z m-75.328-51.792q29.92 15.536 53.168 26.64c3.696 1.472 8.128 3.696 11.824 5.184a69.216 69.216 0 0 1 2.96-11.84c4.432-22.192 8.864-47.36 11.824-74.736-5.904 4.432-11.072 8.144-16.992 12.576-20.688 14.048-41.36 28.112-62.784 42.16z m-189.808 51.792l-2.208-8.88a821.328 821.328 0 0 1-15.504-85.088c-1.472-9.6-2.224-19.2-3.696-28.8l-2.208-17.024 14.032 10.352c7.392 5.92 15.504 11.84 23.632 17.76a12.944 12.944 0 0 1 3.696 2.96c1.472 0.736 2.224 2.224 3.696 2.96 21.424 15.536 45.056 31.072 72.384 48.832l10.336 6.656-11.072 5.92c-28.8 15.536-57.6 29.6-85.664 42.176z m-2.96-95.44c3.696 25.152 8.128 51.056 13.296 75.472a1042.528 1042.528 0 0 0 64.992-31.808 995.536 995.536 0 0 1-62.768-42.912c-1.472-0.736-2.96-2.224-4.432-2.96l-2.96-2.224a83.648 83.648 0 0 1-9.6-7.392 57.744 57.744 0 0 1 1.472 11.84z m135.888 28.112l-3.696-2.224c-32.496-19.2-62.032-39.216-90.848-59.936a1044.336 1044.336 0 0 1-39.152-29.6c-5.904-5.184-12.56-9.6-18.464-14.8l-6.656-5.184-0.736-9.6c-0.736-7.392-0.736-14.8-1.472-22.192-0.736-16.272-0.736-33.296-0.736-48.832 0-23.68 0.736-48.832 2.224-77.68v-2.96l2.224-2.224a1790.512 1790.512 0 0 1 61.296-47.36 1594.464 1594.464 0 0 1 90.096-59.936l3.696-2.224 3.696 2.224q47.632 28.8 90.848 59.936c13.296 9.6 25.856 19.2 39.152 29.6 5.904 4.432 11.808 9.6 17.728 14.064l7.392 5.92 0.736 9.6c0.736 7.392 0.736 14.8 1.472 22.192a1080.48 1080.48 0 0 1 0.736 48.832c0 23.68-0.736 48.832-2.208 77.68v2.96l-2.208 2.224a991.888 991.888 0 0 1-61.296 47.36c-28.8 20.72-59.088 41.44-90.096 59.936z m-144-119.12l1.472 1.472c5.904 5.184 11.824 9.6 17.728 14.8a975.2 975.2 0 0 0 38.4 28.8c27.328 19.984 55.392 38.4 85.664 56.976a1144.8 1144.8 0 0 0 85.664-56.976 1149.856 1149.856 0 0 0 58.352-45.136c1.472-27.376 2.224-51.056 2.224-73.248 0-16.272 0-32.56-0.736-48.096a195.888 195.888 0 0 0-1.472-21.456v-2.96l-2.208-2.224a279.984 279.984 0 0 1-16.992-14.064 630.016 630.016 0 0 0-38.4-28.8 1379.456 1379.456 0 0 0-85.664-56.976c-29.552 18.496-58.352 36.992-85.68 56.976a1142.768 1142.768 0 0 0-58.336 45.136 1358.656 1358.656 0 0 0-2.224 73.248c0 15.536 0 31.808 0.736 48.096a195.888 195.888 0 0 0 1.472 21.456z m330.864-17.024l0.736-25.888c0-9.6 0.736-19.984 0.736-30.4v-8.88c0-9.6 0-19.2-0.736-28.8l-0.736-17.024 12.56 11.84c7.392 6.656 14.768 13.312 21.424 19.984s12.56 12.576 19.2 18.496l5.168 5.184-5.168 5.184c-14.032 14.064-28.064 27.376-40.624 39.216z m16.256-77.68v21.456a201.312 201.312 0 0 1-0.736 21.456c7.392-6.656 14.768-14.064 22.16-21.456l-13.296-13.312a84.064 84.064 0 0 0-8.144-8.16z m-391.424 76.944l-12.56-11.84c-6.64-5.92-13.296-11.84-19.2-17.76l-2.224-2.224c-6.656-5.92-12.56-12.576-19.2-18.496l-5.168-5.184 5.168-5.184a1040.896 1040.896 0 0 1 41.36-39.216l12.56-11.84-0.736 26.64c0 9.6-0.736 19.984-0.736 29.6v8.864c0 9.6 0 19.2 0.736 28.8z m-37.664-55.488l13.296 13.312 2.208 2.224a44.496 44.496 0 0 1 5.904 5.92v-21.456a207.808 207.808 0 0 1 0.736-21.456c-7.36 6.64-14.784 14.048-22.16 21.44z m491.872-20.72l-5.168-5.184a1001.28 1001.28 0 0 0-50.224-47.36c-7.392-6.656-14.768-12.576-22.16-19.2l-2.224-2.224v-2.96c-0.736-9.6-1.472-19.984-2.208-29.6a963.072 963.072 0 0 0-22.16-136.88l-1.472-6.656 5.904-2.224c15.504-5.92 29.536-10.352 42.096-14.064a352.944 352.944 0 0 1 96-15.536c36.192 0 62.784 9.6 75.328 27.376 23.632 32.56 8.128 93.232-42.096 167.216a727.888 727.888 0 0 1-64.992 81.392z m-66.464-81.392l19.936 17.76c15.504 14.064 31.024 28.112 45.792 42.912a891.088 891.088 0 0 0 59.088-73.984c45.056-66.592 61.296-123.568 42.096-150.192-10.336-14.064-32.496-21.456-63.52-21.456a354.064 354.064 0 0 0-91.584 14.8c-10.336 2.96-21.424 6.656-34.704 11.104a1014.4 1014.4 0 0 1 20.672 132.432zM248.352 492.032l-5.168-5.92a823.344 823.344 0 0 1-64.992-81.392c-50.224-73.984-64.992-134.656-42.096-167.216 23.632-32.56 85.664-36.992 171.344-11.84 5.168 1.472 11.072 3.696 16.256 5.184l5.168 1.472 19.936 6.656 5.904 2.224-1.472 6.656c-1.472 6.656-2.96 13.312-4.432 20.72a1265.344 1265.344 0 0 0-19.936 145.76v2.96l-2.208 2.224c-25.856 21.456-50.224 44.4-73.12 67.328z m-58.352-95.44a699.296 699.296 0 0 0 59.088 73.984 1063.408 1063.408 0 0 1 66.464-60.672 1097.264 1097.264 0 0 1 19.936-144.272c0.736-5.184 2.224-9.6 2.96-14.8l-13.296-4.432-5.168-1.472c-5.168-1.472-10.336-3.696-15.504-5.184-76.8-22.192-136.64-19.2-155.088 6.656-20.704 26.624-4.448 83.584 40.592 150.176z m480-3.696l-14.032-10.352a658.72 658.72 0 0 0-23.632-17.76l-7.392-5.184a1354.944 1354.944 0 0 0-72.384-48.832l-10.336-6.656 11.072-5.92a993.296 993.296 0 0 1 85.664-42.176l8.128-3.696 2.224 8.88a821.328 821.328 0 0 1 15.504 85.088c1.472 9.6 2.224 19.2 3.696 29.6z m-98.96-88c23.632 14.8 43.568 28.8 62.784 42.176l7.392 5.184a83.664 83.664 0 0 1 9.6 7.392c-0.736-3.696-0.736-8.144-1.472-11.84q-5.536-37.728-13.296-75.472c-20.656 10.304-42.8 20.656-64.96 32.496z m-211.968 88l2.224-17.024a929.6 929.6 0 0 1 14.032-93.232c1.472-5.184 2.224-11.104 3.696-16.272l2.96-14.064 8.128 3.696 19.936 8.88c19.2 8.88 39.888 19.2 64.992 33.296l11.072 5.92-10.336 6.656a2057.76 2057.76 0 0 0-72.384 48.832c-9.6 6.656-19.2 14.8-30.288 22.944z m31.024-108.016a841.92 841.92 0 0 0-11.824 74.72c5.904-4.432 11.824-8.88 16.992-12.576 19.936-14.064 40.624-28.8 62.032-42.176a725.104 725.104 0 0 0-53.168-26.64c-3.696-1.472-7.392-3.696-11.824-5.184-0.736 3.696-1.472 8.144-2.208 11.84z m124.08 2.224l-3.696-2.224c-33.968-19.2-65.728-36.256-96-49.6a472.32 472.32 0 0 1-19.2-8.88l-5.904-2.224 1.472-6.656c2.224-6.656 4.432-14.064 5.904-20.72 31.024-97.6 73.856-153.888 117.424-153.888 45.792 0 92.32 65.104 123.328 173.872l1.472 6.656-5.904 2.224a1054.944 1054.944 0 0 0-115.952 57.712z m-107.088-71.024c4.432 2.224 8.864 3.696 14.032 5.92 29.536 13.312 60.56 29.6 93.792 48.096a977.6 977.6 0 0 1 107.824-54.016c-28.064-95.44-70.16-156.8-107.088-156.8-35.456 0-74.592 54.752-103.392 143.536a99.2 99.2 0 0 0-5.136 13.184z" fill="#1296db" >
    </path>

    <path d="M507.552 612.16a106.08 106.08 0 1 1 106.08-106.08 106.112 106.112 0 0 1-106.08 106.08z m0-153.232a47.152 47.152 0 1 0 47.152 47.152 47.008 47.008 0 0 0-47.152-47.152z" fill="#1296db" >
    </path>

</svg>