<svg  class="icon" viewBox="0 0 1024 1024" version="1.1" xmlns="http://www.w3.org/2000/svg" width="64" height="64">
    <path d="M510.1 547.1c112.2 0 203.4-91.2 203.4-203.4s-91.2-203.4-203.4-203.4-203.4 91.2-203.4 203.4 91.2 203.4 203.4 203.4z m0-356.2c84.2 0 152.8 68.5 152.8 152.8 0 84.2-68.5 152.8-152.8 152.8S357.3 428 357.3 343.7c0-84.3 68.5-152.8 152.8-152.8zM895.9 842.6C884.8 693.3 716.1 576.4 512 576.4c-204.1 0-372.8 117-383.9 266.2-0.8 10.5 2.9 21 10.1 28.8 7.3 7.8 17.6 12.3 28.2 12.3h691.1c10.7 0 21-4.5 28.2-12.3 7.3-7.8 11-18.2 10.2-28.8z m-715.8-9.5C198.4 716.5 340.7 627 512 627s313.6 89.5 331.9 206.1H180.1z" fill="#bfbfbf">
    </path>
</svg>